<svg width="96" height="120" viewBox="0 0 96 120" fill="none" xmlns="http://www.w3.org/2000/svg">
<path d="M85.6586 118.002L87.1797 116.32C87.0118 116.169 70.3158 101.033 53.2353 81.7454C43.2201 70.4355 35.0376 59.936 28.9117 50.5366C21.3109 38.8714 16.8959 28.9146 15.7885 20.9414L13.5421 21.2529C14.6958 29.5596 19.2299 39.8327 27.0157 51.7827C33.2025 61.2771 41.458 71.869 51.5486 83.2641C68.7094 102.642 85.4882 117.851 85.6561 118.002H85.6586Z" fill="black"/>
<path d="M54.634 120C57.192 120 60.6577 119.45 65.0873 118.347C70.3516 117.036 75.0878 115.385 75.1341 115.368L77.5703 114.517L75.2947 113.3C69.3805 110.136 64.2792 109.427 61.0398 109.388C56.9899 109.34 53.3952 110.318 51.178 112.066C49.3477 113.509 48.5835 115.417 49.0776 117.301C49.2967 118.136 49.8613 118.817 50.7058 119.267C51.6234 119.754 52.9279 120 54.634 120ZM71.7583 114.105C64.6126 116.383 54.6048 118.771 51.7719 117.264C51.4019 117.067 51.3094 116.872 51.2705 116.726C50.9395 115.466 51.801 114.465 52.5823 113.847C55.9531 111.187 63.5685 110.545 71.7583 114.105Z" fill="black"/>
<path d="M37.8262 107.212C40.4401 107.212 44.4632 104.837 50.1218 99.9548C54.1887 96.4453 57.6228 92.8749 57.6569 92.8408L59.4336 90.9887L56.8683 90.9205C50.1437 90.7428 45.2785 92.3808 42.3798 93.7876C38.7534 95.5472 36.0008 98.0175 34.8301 100.566C33.8566 102.683 34.0562 104.735 35.3777 106.198C35.9643 106.845 36.7894 107.195 37.7629 107.21C37.7824 107.21 37.8043 107.21 37.8262 107.21V107.212ZM54.0865 93.2253C48.8222 98.4021 41.0899 104.944 37.831 104.944C37.8189 104.944 37.8067 104.944 37.7969 104.944C37.354 104.937 37.1714 104.798 37.0619 104.676C36.1711 103.693 36.4778 102.413 36.8916 101.515C38.6658 97.6573 45.1544 93.6999 54.0865 93.2253Z" fill="black"/>
<path d="M42.8463 84.4005C43.1919 84.4005 43.4109 84.3956 43.4718 84.3932L45.543 84.3299L44.3723 82.6189C44.2652 82.4607 41.6854 78.7054 38.4484 74.9719C33.8266 69.6394 30.3705 67.2275 27.8856 67.595C26.917 67.7386 25.6173 68.3665 24.931 70.5399C23.9039 73.7866 24.2398 76.5685 25.9337 78.8076C29.9008 84.05 40.1764 84.4005 42.8463 84.4005ZM28.3846 69.8293C29.178 69.8293 31.5583 70.4888 36.7326 76.459C38.5287 78.5301 40.1399 80.6451 41.201 82.0884C37.5844 81.9156 30.5069 81.1027 27.7372 77.4398C26.4959 75.7994 26.2842 73.7672 27.0898 71.2263C27.4938 69.9485 28.0365 69.8682 28.2142 69.8414C28.2605 69.8341 28.3164 69.8293 28.3846 69.8293Z" fill="black"/>
<path d="M29.6733 58.6798L27.0448 56.5454C26.9304 56.4504 24.1753 54.2235 20.7802 52.0963C15.9685 49.0833 12.4979 47.881 10.1711 48.4213C9.00778 48.6914 8.12919 49.407 7.63026 50.49C7.13132 51.5731 7.17758 52.6537 7.76657 53.6126C8.95183 55.5402 12.3835 56.908 18.2538 57.7939C22.3719 58.417 26.1321 58.5557 26.2903 58.5606L29.6758 58.6823L29.6733 58.6798ZM11.3467 50.5582C14.0044 50.5582 18.8039 53.3352 22.6226 56.044C17.0711 55.5232 10.8429 54.2868 9.69656 52.4201C9.56027 52.1962 9.46291 51.9236 9.68682 51.4368C9.89369 50.989 10.2004 50.7407 10.6823 50.6288C10.8843 50.5825 11.1058 50.5582 11.3467 50.5582Z" fill="black"/>
<path d="M17.8906 38.0904L16.114 35.7418C12.8405 31.4145 6.02334 25.6268 2.25823 26.4884C1.0973 26.7537 0.31847 27.6031 0.0604858 28.8833C-0.10988 29.7351 0.0824032 30.6089 0.620275 31.4072C3.16848 35.1942 13.7945 37.3116 14.9968 37.5404L17.8882 38.0904H17.8906ZM3.10038 28.6643C4.89654 28.6643 8.79789 31.1102 12.1127 34.5541C8.18214 33.5222 3.66741 31.8745 2.49918 30.1391C2.23632 29.7473 2.24852 29.4893 2.28016 29.3287C2.38968 28.7835 2.61115 28.7324 2.75961 28.6983C2.86183 28.674 2.97625 28.6643 3.09794 28.6643H3.10038Z" fill="black"/>
<path d="M14.7734 20.6468L14.5276 17.7384C14.513 17.5802 14.1893 13.8005 13.4227 9.79683C11.9429 2.0719 10.1735 0.597012 8.9712 0.156491C8.23132 -0.113662 7.08255 -0.16722 5.80237 1.1154C4.72662 2.19358 4.19849 3.54923 4.23013 5.14825C4.35182 10.9699 12.2909 18.359 12.6292 18.6705L14.7734 20.6492V20.6468ZM8.11205 2.2739C8.13883 2.2739 8.16562 2.27878 8.18995 2.28608C8.35302 2.34449 9.82307 3.07463 11.1933 10.2227C11.4975 11.8072 11.7312 13.377 11.9015 14.6791C9.49935 12.0019 6.55687 8.04447 6.49603 5.09712C6.47656 4.12846 6.77348 3.34966 7.40627 2.71687C7.54743 2.57571 7.87597 2.2739 8.11205 2.2739Z" fill="black"/>
<path d="M20.9499 33.4344L22.1863 31.536C22.2593 31.424 23.9874 28.759 25.489 25.561C27.6478 20.9587 28.1905 17.7582 27.1513 15.7722C26.6864 14.8838 25.6618 13.8105 23.4324 13.7472C21.1397 13.6791 19.8863 14.7451 19.2365 15.648C17.8711 17.544 17.6302 20.7956 18.5234 25.3103C19.1586 28.5205 20.1322 31.1977 20.1735 31.3097L20.9524 33.4368L20.9499 33.4344ZM23.2256 16.0107C23.2718 16.0107 23.318 16.0107 23.3667 16.0107C24.5958 16.0448 24.9681 16.4902 25.1409 16.8212C26.1631 18.7731 23.9313 24.0788 21.5559 28.2138C20.5313 24.6532 19.4629 19.2063 21.074 16.9672C21.3734 16.551 21.921 16.0058 23.2256 16.0058V16.0107Z" fill="black"/>
<path d="M31.3733 53.4137L33.0428 50.9774C33.1304 50.8509 35.1919 47.8329 37.0586 44.3063C39.7456 39.2343 40.5828 35.844 39.6214 33.9456C39.2539 33.2203 38.4532 32.3466 36.7252 32.2906C35.3258 32.2468 34.087 32.7774 33.1378 33.8263C31.512 35.6249 30.6626 39.0079 30.6115 43.8829C30.5749 47.3827 30.9668 50.3592 30.9814 50.4834L31.3708 53.4113L31.3733 53.4137ZM36.5573 34.5565C36.5889 34.5565 36.6206 34.5565 36.6522 34.5565C37.4018 34.5808 37.5406 34.8534 37.599 34.9702C37.8107 35.3864 38.2488 37.2142 35.0556 43.2452C34.3449 44.5887 33.5929 45.8689 32.9455 46.93C32.7362 42.9702 32.9114 37.4576 34.822 35.3475C35.3087 34.8096 35.8637 34.5565 36.5597 34.5565H36.5573Z" fill="black"/>
<path d="M44.0402 71.9025L45.4299 70.1696C45.5078 70.0747 47.338 67.7821 49.0052 64.9783C51.4122 60.926 52.196 58.0079 51.4025 56.0559C51.0399 55.1627 50.1564 54.0408 48.0195 53.7803C45.8266 53.5126 44.5392 54.418 43.8431 55.2236C42.412 56.881 41.9277 59.8697 42.3974 64.1119C42.7309 67.1152 43.4244 69.6561 43.4537 69.7608L44.0427 71.9025H44.0402ZM47.2456 56C47.3989 56 47.5644 56.0097 47.7421 56.0316C49.0052 56.1849 49.2194 56.7131 49.2997 56.9102C50.0493 58.7551 47.6057 63.299 45.0989 66.8378C44.3809 63.1578 44.0573 58.4435 45.5565 56.7058C45.8291 56.3918 46.2891 56 47.2431 56H47.2456Z" fill="black"/>
<path d="M56.7661 84.5195L57.9635 84.0424C59.8984 83.2709 62.3395 79.3792 63.8412 76.2834C64.8634 74.1757 67.1463 68.9138 66.2774 65.5479C65.7298 63.4231 64.0067 62.379 61.5485 62.6881C59.6331 62.9291 58.1144 63.8564 57.0362 65.4457C53.3173 70.9242 56.3183 82.7696 56.4473 83.2734L56.7685 84.5219L56.7661 84.5195ZM62.4101 64.8981C63.5881 64.8981 63.9142 65.4749 64.0797 66.1125C64.5445 67.916 63.6708 71.4328 61.7992 75.2929C60.5044 77.9628 59.1974 79.8758 58.2483 80.9539C57.467 77.0014 56.6882 69.9896 58.9127 66.7185C59.6185 65.6793 60.575 65.0952 61.8308 64.937C62.045 64.9102 62.2373 64.8981 62.4125 64.8981H62.4101Z" fill="black"/>
<path d="M74.9433 100.992L75.8949 98.8309C75.963 98.6776 77.5718 95.0025 78.7912 90.6801C80.4948 84.6321 80.5484 80.424 78.9445 78.1751C78.2533 77.204 76.8855 76.0918 74.3056 76.3035C71.6795 76.5202 70.3969 77.8953 69.7812 79.0124C68.3988 81.5216 68.686 85.6713 70.6379 91.3421C72.0398 95.4114 73.7775 98.7579 73.8505 98.8991L74.9433 100.992ZM74.9457 78.5451C76.2551 78.5451 76.7978 79.0732 77.0948 79.4918C78.2435 81.103 78.0732 84.8511 76.6129 90.0424C76.019 92.1525 75.3157 94.1312 74.7632 95.5794C72.7091 91.0476 69.9515 83.4006 71.7647 80.1076C72.2831 79.1657 73.1495 78.6765 74.4881 78.5645C74.6488 78.5524 74.8021 78.5451 74.9433 78.5451H74.9457Z" fill="black"/>
<path d="M89.5519 113.852L90.6934 110.963C90.7104 110.919 92.3922 106.648 93.7429 102.053C96.3179 93.2961 95.5026 90.9256 94.6678 89.9058C94.0764 89.183 93.188 88.8885 92.1658 89.0734C90.2456 89.4215 88.7707 90.4437 87.785 92.1108C84.2973 98.008 88.3885 110.381 88.5638 110.905L89.5519 113.85V113.852ZM92.7475 91.2882C92.8643 91.2882 92.8935 91.3247 92.913 91.3466C93.1101 91.5875 93.9766 93.2085 91.5696 101.401C90.9806 103.401 90.3283 105.343 89.7831 106.884C88.7634 102.63 87.8702 96.4187 89.7369 93.2669C90.3819 92.1765 91.3091 91.5365 92.5698 91.3077C92.6453 91.2931 92.7037 91.2882 92.7475 91.2882Z" fill="black"/>
</svg>
