<svg width="120" height="120" viewBox="0 0 120 120" fill="none" xmlns="http://www.w3.org/2000/svg">
<path d="M29.7176 64.0875C26.86 64.0875 22.5655 64.0052 18.1886 63.613C7.46316 62.6532 1.60542 60.4154 0.286335 56.7735C-0.77771 53.8419 1.11724 50.5401 6.08096 46.6843C11.1571 42.738 16.2305 40.2836 21.1641 39.3896C25.1679 38.6628 29.0759 38.9535 32.7808 40.2562C39.0746 42.4665 42.5574 46.805 42.7027 46.9887L40.7008 48.5766C40.6679 48.5354 37.4593 44.5727 31.8237 42.6311C24.3014 40.0395 16.1674 42.0826 7.64685 48.7054C3.83768 51.6645 2.07711 54.2231 2.68866 55.9069C3.11099 57.0752 5.49134 59.9136 18.4162 61.0708C25.8151 61.7345 32.981 61.4932 33.0523 61.4932L33.1401 64.0463C33.1099 64.0463 31.7936 64.0902 29.7149 64.0902L29.7176 64.0875Z" fill="black"/>
<path d="M78.9317 80.3694C75.1883 80.3694 70.7648 80.2706 66.2756 79.9443C59.4169 79.4479 53.7347 78.532 49.388 77.2184C43.6729 75.4907 40.1544 73.017 38.934 69.8633C38.0044 67.461 38.402 64.7378 40.1188 61.7733C41.8547 58.7731 45.0303 55.4 49.5553 51.7526C61.5011 42.1241 73.51 38.1394 85.2474 39.9083C94.9993 41.3782 102.678 46.6408 107.406 50.7982C112.128 54.9502 114.868 58.7731 115.342 59.4587C115.819 59.9496 117.895 62.2038 119.108 65.4755C120.383 68.9117 120.923 74.1195 116.258 79.4233L114.339 77.7367C117.416 74.2401 118.214 70.4145 116.711 66.3668C115.559 63.2651 113.48 61.2111 113.458 61.1919L113.365 61.1014L113.291 60.9917C113.264 60.9533 110.532 56.9439 105.653 52.6658C101.192 48.7552 93.9572 43.8052 84.8415 42.4367C73.8473 40.7858 62.513 44.5922 51.1568 53.7463C43.3136 60.0675 39.9103 65.3219 41.3144 68.9446C43.0202 73.3461 51.9412 76.349 66.4346 77.3994C77.8704 78.2276 88.8948 77.5749 89.0045 77.5694L89.1607 80.1198C89.0922 80.1253 84.8662 80.3748 78.9317 80.3748V80.3694Z" fill="black"/>
</svg>
