<svg width="120" height="120" viewBox="0 0 120 120" fill="none" xmlns="http://www.w3.org/2000/svg">
<path d="M12.2274 95.0594C9.96973 93.6059 8.00725 90.4766 6.23033 85.4916C4.88358 81.7185 3.66053 76.8909 2.59213 71.1413C0.78147 61.4047 0.027966 52.2305 0.0195312 52.1406L2.63149 51.9297C2.63992 52.0197 3.38499 61.0758 5.17035 70.683C7.45055 82.9302 10.459 90.8055 13.6445 92.858L12.2246 95.0594H12.2274Z" fill="black"/>
<path d="M119.397 70.6808L116.816 70.2253C118.688 59.589 115.559 49.5461 112.601 42.9951C109.368 35.8311 105.631 31.1526 105.592 31.1077L107.63 29.4629C107.79 29.6597 111.583 34.4001 114.957 41.8479C118.084 48.7504 121.39 59.3585 119.394 70.6808H119.397Z" fill="black"/>
<path d="M25.742 63.0751C23.5208 63.0751 21.3896 63.002 19.3625 62.8558C14.0514 62.4706 9.72717 61.5906 6.5079 60.241C2.90063 58.7284 0.766641 56.6591 0.167773 54.0893C-0.279269 52.1746 0.167771 50.1306 1.50046 48.0106C6.85091 39.4943 26.3605 30.2133 50.0481 24.9191C64.2157 21.7532 77.9419 20.4402 88.6962 21.219C94.0073 21.6042 98.3315 22.4842 101.554 23.8338C105.161 25.3464 107.295 27.4158 107.894 29.9855C108.341 31.9002 107.894 33.9443 106.561 36.0642C101.211 44.5805 81.701 53.8615 58.0134 59.1558C46.5168 61.7256 35.3098 63.0751 25.7476 63.0751H25.742ZM82.2971 23.6201C72.9345 23.6201 61.9299 24.9472 50.6161 27.4776C27.9266 32.5497 8.63908 41.5665 3.716 49.4052C2.7713 50.9094 2.43391 52.2871 2.71507 53.496C3.53605 57.0162 9.8312 59.541 19.5509 60.2467C30.0578 61.0086 43.5112 59.7153 57.437 56.6029C80.1265 51.5308 99.414 42.514 104.337 34.6753C105.282 33.1711 105.619 31.7934 105.338 30.5844C104.517 27.0643 98.2219 24.5395 88.5022 23.8338C86.5313 23.6904 84.4592 23.6201 82.2971 23.6201Z" fill="black"/>
<path d="M27.906 99.2774C23.7477 99.2774 20.3344 98.985 17.7337 98.4002C14.1067 97.5877 12.1189 96.2325 11.6578 94.2559C11.4132 93.2072 11.6494 92.0966 12.3635 90.9607C14.8602 86.9852 23.1179 83.0208 29.607 80.3976C38.7053 76.7173 50.4887 73.1747 62.7837 70.4277C76.912 67.2703 90.4638 65.4006 100.943 65.1616C106.102 65.0435 110.263 65.3303 113.308 66.0107C116.935 66.8233 118.923 68.1784 119.384 70.155C119.628 71.2037 119.392 72.3143 118.678 73.4502C116.181 77.4258 107.924 81.3901 101.435 84.0133C92.3363 87.6937 80.553 91.2363 68.2579 93.9832C54.1297 97.1406 40.5778 99.0103 30.099 99.2493C29.3455 99.2662 28.6145 99.2746 27.906 99.2746V99.2774ZM103.113 67.7567C102.438 67.7567 101.735 67.7652 101.002 67.782C90.6916 68.0154 77.3196 69.8654 63.3545 72.9863C51.1944 75.7051 39.56 79.1999 30.5883 82.8296C22.0495 86.2851 16.2154 89.7574 14.5819 92.3581C14.2529 92.8811 14.1292 93.3197 14.2079 93.6627C14.4947 94.8941 18.1526 96.9044 30.0372 96.6317C40.3473 96.3984 53.7192 94.5483 67.6815 91.4275C79.8416 88.7087 91.476 85.2139 100.448 81.5841C108.987 78.1287 114.821 74.6563 116.454 72.0556C116.783 71.5327 116.907 71.0941 116.828 70.751C116.558 69.5955 113.322 67.7567 103.11 67.7567H103.113Z" fill="black"/>
<path d="M29.0656 70.7424C13.4331 70.7424 4.01431 67.8268 3.56445 67.6834L4.35451 65.1839C4.47541 65.2233 16.7733 69.0133 36.2098 67.9168C54.1421 66.9046 81.9993 61.4023 112.879 40.9424L114.327 43.127C100.457 52.3181 86.0171 59.3302 71.4052 63.9693C59.7034 67.6862 47.8666 69.8961 36.221 70.54C33.7131 70.6777 31.3233 70.7396 29.0656 70.7396V70.7424Z" fill="black"/>
<path d="M18.0436 51.609L16.2695 49.6831C16.5423 49.4301 23.0792 43.461 33.4652 38.4902C39.5776 35.5661 45.7518 33.6064 51.8164 32.6702C59.4077 31.4978 66.8444 31.9335 73.9155 33.9607C75.3325 34.2475 76.8424 35.0629 76.8986 36.5024C76.9745 38.4115 74.7899 40.298 63.895 43.298C60.3046 44.2876 58.5108 45.0074 57.6195 45.4573C59.0872 45.8228 61.9044 46.1236 64.6879 46.1771C65.7928 45.9184 71.7168 44.6391 75.296 45.8818L74.4385 48.356C71.8265 47.4507 66.8444 48.342 65.1462 48.7609L64.9803 48.8031H64.8116C64.716 48.8003 62.4639 48.7609 60.1443 48.5135C56.1097 48.0861 54.4621 47.3382 54.2738 45.8509C54.0713 44.2624 55.9551 43.3514 56.6636 43.0084C58.0722 42.3252 60.2118 41.5941 63.2005 40.7704C70.8284 38.6701 73.2435 37.3065 73.9942 36.7104C73.7974 36.6317 73.5612 36.5586 73.356 36.5164L73.2463 36.4883C58.0328 32.105 43.8709 36.4208 34.6714 40.8125C24.6199 45.6091 18.1139 51.5444 18.0493 51.6034L18.0436 51.609Z" fill="black"/>
</svg>
