<svg width="120" height="120" viewBox="0 0 120 120" fill="none" xmlns="http://www.w3.org/2000/svg">
<path d="M41.6884 105.914C32.7576 105.914 24.3574 102.508 18.0405 96.3261C11.7176 90.1379 8.23438 81.91 8.23438 73.1554C8.23438 66.8325 10.078 60.6958 13.5632 55.4086C16.9573 50.2639 21.7317 46.1589 27.3733 43.5411C31.8625 41.4559 36.6784 40.4004 41.6884 40.4004C49.0806 40.4004 56.0847 42.7113 61.9422 47.0837C69.774 52.9273 74.5642 61.779 75.087 71.3712C75.1207 71.9336 75.1385 72.5356 75.1385 73.1554C75.1385 78.5218 73.784 83.8467 71.2216 88.5497C68.7423 93.1023 65.1442 97.0707 60.8174 100.029C55.1956 103.879 48.5816 105.914 41.6884 105.914ZM41.6884 42.246C36.9497 42.246 32.3952 43.246 28.1496 45.2163C17.1712 50.3115 10.078 61.278 10.078 73.1554C10.078 90.2012 24.2584 104.069 41.6864 104.069C48.2054 104.069 54.4609 102.146 59.7738 98.5063C68.2393 92.7221 73.2909 83.2447 73.2909 73.1554C73.2909 72.5732 73.2751 72.0089 73.2434 71.4782C72.7503 62.4285 68.2295 54.0779 60.8373 48.5629C55.3005 44.4302 48.6786 42.246 41.6864 42.246H41.6884Z" fill="black"/>
<path d="M84.0228 109.245C74.9771 109.245 66.3315 105.946 59.6799 99.9534L58.8086 99.1672L59.7769 98.5059C68.2404 92.7216 73.294 83.2442 73.294 73.1549C73.294 72.5728 73.2781 72.0084 73.2464 71.4777C72.7534 62.428 68.2325 54.0774 60.8403 48.5625L59.8997 47.8615L60.8027 47.1129C63.9809 44.4792 67.5612 42.4237 71.4445 41.0039C75.4623 39.5365 79.6941 38.792 84.0228 38.792C88.0625 38.792 92.0269 39.4415 95.8052 40.7247C110.277 45.6337 120 59.0141 120 74.0183C120 78.7768 119.047 83.3907 117.17 87.7373C115.356 91.9334 112.762 95.6999 109.457 98.9356C102.663 105.585 93.6309 109.247 84.0248 109.247L84.0228 109.245ZM61.7869 99.3395C67.9731 104.546 75.8247 107.397 84.0228 107.397C102.843 107.397 118.154 92.4226 118.154 74.0163C118.154 59.8022 108.934 47.1248 95.2131 42.4693C91.6269 41.2515 87.8625 40.6336 84.0248 40.6336C76.3455 40.6336 68.884 43.1742 62.8839 47.808C70.1573 53.6457 74.589 62.1666 75.0881 71.3688C75.1217 71.9312 75.1396 72.5331 75.1396 73.153C75.1396 78.5194 73.7851 83.8442 71.2226 88.5473C68.9315 92.7553 65.684 96.4642 61.7869 99.3375V99.3395Z" fill="black"/>
<path d="M61.4217 48.9967L60.8395 48.563C55.3028 44.4303 48.6809 42.246 41.6887 42.246C36.95 42.246 32.3955 43.2461 28.1499 45.2164L26.938 45.7788L26.841 44.4461C26.7875 43.7194 26.7617 42.9926 26.7617 42.2837C26.7617 37.9172 27.6865 33.6796 29.5103 29.6914C31.2687 25.8458 33.7876 22.3923 36.9916 19.4298C43.5679 13.3485 52.3087 10 61.6019 10C70.8951 10 79.4141 13.2674 85.9607 19.2001C92.5173 25.1428 96.2361 33.0895 96.4302 41.5767L96.4599 42.8956L95.2104 42.4718C91.6242 41.254 87.8597 40.6361 84.0221 40.6361C75.9526 40.6361 68.1228 43.4401 61.9782 48.5333L61.4197 48.9967H61.4217ZM41.6887 40.4005C48.8374 40.4005 55.6236 42.5609 61.3603 46.658C64.398 44.2401 67.7862 42.3411 71.4437 41.0044C75.4616 39.5371 79.6933 38.7925 84.0221 38.7925C87.6082 38.7925 91.135 39.3054 94.5252 40.3173C93.4202 24.5032 78.9388 11.8455 61.6019 11.8455C43.4075 11.8455 28.6073 25.4992 28.6073 42.2837C28.6073 42.5193 28.6113 42.755 28.6172 42.9946C32.748 41.2718 37.1401 40.4005 41.6887 40.4005Z" fill="black"/>
<path d="M16.7734 42.0536C13.5496 42.0536 10.9277 38.8061 10.9277 34.8139C10.9277 30.8218 13.5496 27.5742 16.7734 27.5742C19.9972 27.5742 22.619 30.8218 22.619 34.8139C22.619 38.8061 19.9972 42.0536 16.7734 42.0536ZM16.7734 29.4178C14.5674 29.4178 12.7733 31.8376 12.7733 34.8139C12.7733 37.7902 14.5674 40.21 16.7734 40.21C18.9794 40.21 20.7734 37.7902 20.7734 34.8139C20.7734 31.8376 18.9794 29.4178 16.7734 29.4178Z" fill="black"/>
<path d="M4.19412 29.4179C1.84358 29.4179 0 26.4277 0 22.6098C0 18.792 1.8416 15.7998 4.19412 15.7998C6.54663 15.7998 8.38823 18.79 8.38823 22.6098C8.38823 26.4297 6.54663 29.4179 4.19412 29.4179ZM4.19412 17.6454C3.08519 17.6454 1.84554 19.7682 1.84554 22.6098C1.84554 25.4515 3.08519 27.5743 4.19412 27.5743C5.30304 27.5743 6.54269 25.4515 6.54269 22.6098C6.54269 19.7682 5.30304 17.6454 4.19412 17.6454Z" fill="black"/>
<path d="M8.60138 51.8022C6.36966 51.8022 4.62109 49.4755 4.62109 46.5051C4.62109 43.5348 6.36966 41.208 8.60138 41.208C10.8331 41.208 12.5817 43.5348 12.5817 46.5051C12.5817 49.4755 10.8331 51.8022 8.60138 51.8022ZM8.60138 43.0536C7.44492 43.0536 6.46668 44.6338 6.46668 46.5051C6.46668 48.3764 7.44492 49.9567 8.60138 49.9567C9.75783 49.9567 10.7361 48.3764 10.7361 46.5051C10.7361 44.6338 9.75783 43.0536 8.60138 43.0536Z" fill="black"/>
<path d="M26.8234 86.3434C20.5322 86.3434 16.4093 84.6998 16.1836 84.6087L16.8806 82.8998L16.5321 83.7533L16.8787 82.8978C16.946 82.9256 23.7956 85.6345 33.1324 83.9176C45.4989 81.6443 56.6496 72.6482 65.3785 57.8994L66.9666 58.84C61.9388 67.3332 56.1565 73.9789 49.7802 78.5908C44.6474 82.3018 39.1226 84.7117 33.3581 85.7533C31.0017 86.1791 28.8036 86.3414 26.8214 86.3414L26.8234 86.3434Z" fill="black"/>
<path d="M60.5178 26.6218L59.9376 24.8692C59.7198 24.9405 59.6841 25.0574 59.6821 25.0712C59.6841 25.0593 59.9019 23.9861 56.5078 20.3405L57.8583 19.083C60.6742 22.1068 61.8208 24.1544 61.4683 25.5287C61.3079 26.1544 60.8703 26.5029 60.5158 26.6198L60.5178 26.6218Z" fill="black"/>
<path d="M52.0073 36.0695C51.1895 36.0695 50.1558 35.3586 48.6191 33.7744L49.9439 32.4893C51.4984 34.0913 52.0271 34.22 52.0489 34.2259C52.0013 34.216 51.8291 34.218 51.6607 34.3527C51.5677 34.4279 51.4568 34.5606 51.4568 34.7606L53.3024 34.7527C53.3024 35.1982 53.0608 35.7468 52.5103 35.9705C52.3519 36.0359 52.1835 36.0695 52.0073 36.0695Z" fill="black"/>
<path d="M71.6688 38.0539L69.8926 37.5568C70.4074 35.7152 71.6272 34.0459 73.2411 32.9785L74.261 34.5172C73.0115 35.3449 72.0688 36.634 71.6708 38.0539H71.6688Z" fill="black"/>
<path d="M83.6303 59.8483L81.8164 59.5136C82.1728 57.5848 84.2105 56.169 86.1769 56.4819L85.8858 58.3037C84.9016 58.1473 83.8065 58.8978 83.6303 59.8483Z" fill="black"/>
<path d="M44.1445 61.6207C43.8692 61.0563 43.4138 60.5712 42.8633 60.2504L43.79 58.6543C44.6534 59.1553 45.3682 59.9216 45.8019 60.8088L44.1445 61.6207Z" fill="black"/>
<path d="M26.1068 71.4484L25.1543 69.8682C25.6929 69.5434 26.0612 68.9394 26.0969 68.3256C26.1325 67.7137 25.8335 67.0741 25.3384 66.6939L26.4612 65.2285C27.4434 65.981 28.0098 67.2087 27.9404 68.4305C27.8711 69.6523 27.1682 70.8068 26.1087 71.4464L26.1068 71.4484Z" fill="black"/>
<path d="M25.9308 80.1004C25.7129 80.1004 25.4971 80.0825 25.2812 80.0449L25.5922 78.225C26.2258 78.334 26.9407 78.1161 27.505 77.6429C28.0496 77.1874 28.3645 76.5815 28.3704 75.9795L30.216 75.9934C30.2061 77.136 29.6516 78.2528 28.6892 79.0568C27.8813 79.734 26.9031 80.0964 25.9308 80.0964V80.1004Z" fill="black"/>
<path d="M36.5831 98.8906C35.591 97.647 34.8445 96.253 34.3613 94.746L36.1178 94.1836C36.5316 95.4747 37.1733 96.6727 38.0248 97.7401L36.5812 98.8906H36.5831Z" fill="black"/>
<path d="M58.0825 86.9063L57.3301 85.2211C58.3083 84.7855 59.3281 84.4151 60.3598 84.1221L60.8648 85.8983C59.9162 86.1676 58.9816 86.5063 58.0825 86.9083V86.9063Z" fill="black"/>
<path d="M55.3895 57.7451L53.7578 56.8817C54.2826 55.8896 55.0569 55.0282 55.9955 54.3945L57.0292 55.9233C56.34 56.3886 55.7737 57.0183 55.3895 57.7451Z" fill="black"/>
<path d="M87.2727 64.5901L86.5566 66.291L88.9585 67.3021L89.6745 65.6012L87.2727 64.5901Z" fill="black"/>
<path d="M89.8368 89.6123L88.7656 91.1152L90.541 92.3807L91.6122 90.8778L89.8368 89.6123Z" fill="black"/>
<path d="M104.905 83.6206C104.487 82.7137 104.602 81.6087 105.198 80.8027L106.682 81.9018C106.487 82.1651 106.446 82.5533 106.583 82.8483L104.907 83.6206H104.905Z" fill="black"/>
<path d="M108.14 68.8148C107.724 68.0187 107.095 67.3434 106.324 66.8603L107.302 65.2959C108.352 65.9514 109.205 66.8722 109.774 67.9573L108.138 68.8128L108.14 68.8148Z" fill="black"/>
<path d="M106.241 61.3632C104.472 60.284 102.441 59.6127 100.365 59.4265L100.532 57.5889C102.888 57.8027 105.195 58.5632 107.203 59.7889L106.241 61.3632Z" fill="black"/>
</svg>
