<svg width="21" height="21" viewBox="0 0 21 21" fill="none" xmlns="http://www.w3.org/2000/svg">
<g clip-path="url(#clip0_1957_2179)">
<path d="M8.09896 19.25L6.51562 16.5833L3.51562 15.9167L3.80729 12.8333L1.76562 10.5L3.80729 8.16667L3.51562 5.08333L6.51562 4.41667L8.09896 1.75L10.9323 2.95833L13.7656 1.75L15.349 4.41667L18.349 5.08333L18.0573 8.16667L20.099 10.5L18.0573 12.8333L18.349 15.9167L15.349 16.5833L13.7656 19.25L10.9323 18.0417L8.09896 19.25ZM10.0573 13.4583L14.7656 8.75L13.599 7.54167L10.0573 11.0833L8.26563 9.33333L7.09896 10.5L10.0573 13.4583Z" fill="#F4CF7A"/>
</g>
<defs>
<clipPath id="clip0_1957_2179">
<rect width="20" height="20" fill="white" transform="translate(0.933594 0.5)"/>
</clipPath>
</defs>
</svg>
