<svg width="20" height="20" viewBox="0 0 20 20" fill="none" xmlns="http://www.w3.org/2000/svg">
<path d="M11.5247 15.8337C11.4002 15.8341 11.2772 15.8067 11.1647 15.7533C11.0523 15.7 10.9532 15.6221 10.8747 15.5254L6.84973 10.5254C6.72716 10.3763 6.66016 10.1892 6.66016 9.99623C6.66016 9.8032 6.72716 9.61617 6.84973 9.46706L11.0164 4.46706C11.1578 4.29688 11.3611 4.18986 11.5815 4.16954C11.8018 4.14923 12.0212 4.21728 12.1914 4.35873C12.3616 4.50017 12.4686 4.70343 12.4889 4.92379C12.5092 5.14414 12.4412 5.36354 12.2997 5.53373L8.57473 10.0004L12.1747 14.4671C12.2766 14.5894 12.3414 14.7383 12.3613 14.8963C12.3812 15.0542 12.3554 15.2146 12.287 15.3584C12.2186 15.5021 12.1105 15.6233 11.9754 15.7076C11.8403 15.7918 11.6839 15.8356 11.5247 15.8337Z" fill="#232020"/>
</svg>
