<svg width="32" height="33" viewBox="0 0 32 33" fill="none" xmlns="http://www.w3.org/2000/svg">
<path d="M22.1333 8.70141C21.2219 7.6609 20.7196 6.32465 20.72 4.94141H16.6V21.4747C16.5682 22.3694 16.1905 23.2169 15.5463 23.8387C14.9022 24.4604 14.0419 24.8079 13.1466 24.8081C11.2533 24.8081 9.67997 23.2614 9.67997 21.3414C9.67997 19.0481 11.8933 17.3281 14.1733 18.0347V13.8214C9.5733 13.2081 5.54663 16.7814 5.54663 21.3414C5.54663 25.7814 9.22663 28.9414 13.1333 28.9414C17.32 28.9414 20.72 25.5414 20.72 21.3414V12.9547C22.3906 14.1545 24.3965 14.7983 26.4533 14.7947V10.6747C26.4533 10.6747 23.9466 10.7947 22.1333 8.70141Z" fill="#964F4C"/>
</svg>
