<svg width="20" height="21" viewBox="0 0 20 21" fill="none" xmlns="http://www.w3.org/2000/svg">
<g clip-path="url(#clip0_945_2397)">
<path d="M18.3334 15.0408V17.5408C18.3344 17.7729 18.2868 18.0026 18.1939 18.2153C18.1009 18.4279 17.9645 18.6188 17.7935 18.7757C17.6225 18.9326 17.4206 19.0521 17.2007 19.1264C16.9809 19.2008 16.7479 19.2284 16.5168 19.2075C13.9525 18.9289 11.4893 18.0526 9.32511 16.6492C7.31163 15.3697 5.60455 13.6626 4.32511 11.6492C2.91676 9.47517 2.04031 7 1.76677 4.42417C1.74595 4.19373 1.77334 3.96147 1.84719 3.74219C1.92105 3.52291 2.03975 3.32141 2.19575 3.15052C2.35174 2.97963 2.54161 2.84309 2.75327 2.7496C2.96492 2.65611 3.19372 2.60772 3.42511 2.6075H5.92511C6.32953 2.60352 6.7216 2.74673 7.02824 3.01045C7.33488 3.27416 7.53517 3.64037 7.59177 4.04084C7.69729 4.84089 7.89298 5.62644 8.17511 6.3825C8.28723 6.68077 8.31149 7.00493 8.24503 7.31657C8.17857 7.62821 8.02416 7.91426 7.80011 8.14084L6.74177 9.19917C7.92807 11.2855 9.65549 13.0129 11.7418 14.1992L12.8001 13.1408C13.0267 12.9168 13.3127 12.7624 13.6244 12.6959C13.936 12.6295 14.2602 12.6537 14.5584 12.7658C15.3145 13.048 16.1001 13.2437 16.9001 13.3492C17.3049 13.4063 17.6746 13.6102 17.9389 13.9221C18.2032 14.234 18.3436 14.6321 18.3334 15.0408Z" stroke="#964F4C" stroke-width="2" stroke-linecap="round" stroke-linejoin="round"/>
</g>
<defs>
<clipPath id="clip0_945_2397">
<rect width="20" height="20" fill="white" transform="translate(0 0.941406)"/>
</clipPath>
</defs>
</svg>
