<svg width="21" height="20" viewBox="0 0 21 20" fill="none" xmlns="http://www.w3.org/2000/svg">
<path fill-rule="evenodd" clip-rule="evenodd" d="M4 9.16667C4 6.03705 6.53705 3.5 9.66667 3.5C12.7963 3.5 15.3333 6.03705 15.3333 9.16667C15.3333 10.689 14.7331 12.0711 13.7563 13.0892C13.7256 13.1134 13.6961 13.1396 13.6678 13.1679C13.6395 13.1962 13.6133 13.2257 13.5891 13.2564C12.571 14.2331 11.1889 14.8333 9.66667 14.8333C6.53705 14.8333 4 12.2963 4 9.16667ZM14.3346 15.2489C13.0418 16.2426 11.4232 16.8333 9.66667 16.8333C5.43248 16.8333 2 13.4008 2 9.16667C2 4.93248 5.43248 1.5 9.66667 1.5C13.9008 1.5 17.3333 4.93248 17.3333 9.16667C17.3333 10.9233 16.7426 12.5419 15.7489 13.8347L18.707 16.7929C19.0976 17.1834 19.0976 17.8166 18.707 18.2071C18.3165 18.5976 17.6833 18.5976 17.2928 18.2071L14.3346 15.2489Z" fill="#797A7B"/>
</svg>
