<svg width="20" height="21" viewBox="0 0 20 21" fill="none" xmlns="http://www.w3.org/2000/svg">
<path fill-rule="evenodd" clip-rule="evenodd" d="M0.833365 5.92695C0.83323 5.93518 0.833216 5.9434 0.833323 5.95161V15.9414C0.833323 17.3183 1.95642 18.4414 3.33332 18.4414H16.6667C18.0436 18.4414 19.1667 17.3183 19.1667 15.9414V5.95171C19.1668 5.94342 19.1668 5.93513 19.1666 5.92683C19.1587 4.55659 18.0387 3.44141 16.6667 3.44141H3.33332C1.96124 3.44141 0.84119 4.55665 0.833365 5.92695ZM2.5888 5.5697C2.72662 5.29718 3.01002 5.10807 3.33332 5.10807H16.6667C16.99 5.10807 17.2734 5.29718 17.4112 5.5697L9.99999 10.7575L2.5888 5.5697ZM17.5 7.54195V15.9414C17.5 16.3978 17.1231 16.7747 16.6667 16.7747H3.33332C2.87689 16.7747 2.49999 16.3978 2.49999 15.9414V7.54195L9.52211 12.4574C9.80904 12.6583 10.1909 12.6583 10.4779 12.4574L17.5 7.54195Z" fill="#964F4C"/>
</svg>
