<svg width="32" height="33" viewBox="0 0 32 33" fill="none" xmlns="http://www.w3.org/2000/svg">
<path d="M13.3333 20.9408L20.2533 16.9408L13.3333 12.9408V20.9408ZM28.7466 10.5008C28.92 11.1274 29.04 11.9674 29.12 13.0341C29.2133 14.1008 29.2533 15.0208 29.2533 15.8208L29.3333 16.9408C29.3333 19.8608 29.12 22.0074 28.7466 23.3808C28.4133 24.5808 27.64 25.3541 26.44 25.6874C25.8133 25.8608 24.6666 25.9808 22.9066 26.0608C21.1733 26.1541 19.5866 26.1941 18.12 26.1941L16 26.2741C10.4133 26.2741 6.93329 26.0608 5.55996 25.6874C4.35996 25.3541 3.58663 24.5808 3.25329 23.3808C3.07996 22.7541 2.95996 21.9141 2.87996 20.8474C2.78663 19.7808 2.74663 18.8608 2.74663 18.0608L2.66663 16.9408C2.66663 14.0208 2.87996 11.8741 3.25329 10.5008C3.58663 9.30076 4.35996 8.52742 5.55996 8.19409C6.18663 8.02076 7.33329 7.90076 9.09329 7.82076C10.8266 7.72742 12.4133 7.68742 13.88 7.68742L16 7.60742C21.5866 7.60742 25.0666 7.82076 26.44 8.19409C27.64 8.52742 28.4133 9.30076 28.7466 10.5008Z" fill="#964F4C"/>
</svg>
