<svg width="32" height="33" viewBox="0 0 32 33" fill="none" xmlns="http://www.w3.org/2000/svg">
<path d="M10.4 3.60742H21.6C25.8666 3.60742 29.3333 7.07409 29.3333 11.3408V22.5408C29.3333 24.5918 28.5185 26.5588 27.0683 28.009C25.618 29.4593 23.651 30.2741 21.6 30.2741H10.4C6.13329 30.2741 2.66663 26.8074 2.66663 22.5408V11.3408C2.66663 9.28975 3.48139 7.32274 4.93167 5.87246C6.38195 4.42218 8.34895 3.60742 10.4 3.60742ZM10.1333 6.27409C8.86025 6.27409 7.63935 6.7798 6.73918 7.67998C5.83901 8.58015 5.33329 9.80105 5.33329 11.0741V22.8074C5.33329 25.4608 7.47996 27.6074 10.1333 27.6074H21.8666C23.1397 27.6074 24.3606 27.1017 25.2607 26.2015C26.1609 25.3014 26.6666 24.0805 26.6666 22.8074V11.0741C26.6666 8.42075 24.52 6.27409 21.8666 6.27409H10.1333ZM23 8.27409C23.442 8.27409 23.8659 8.44968 24.1785 8.76224C24.491 9.0748 24.6666 9.49873 24.6666 9.94075C24.6666 10.3828 24.491 10.8067 24.1785 11.1193C23.8659 11.4318 23.442 11.6074 23 11.6074C22.5579 11.6074 22.134 11.4318 21.8214 11.1193C21.5089 10.8067 21.3333 10.3828 21.3333 9.94075C21.3333 9.49873 21.5089 9.0748 21.8214 8.76224C22.134 8.44968 22.5579 8.27409 23 8.27409ZM16 10.2741C17.7681 10.2741 19.4638 10.9765 20.714 12.2267C21.9642 13.477 22.6666 15.1726 22.6666 16.9408C22.6666 18.7089 21.9642 20.4046 20.714 21.6548C19.4638 22.905 17.7681 23.6074 16 23.6074C14.2318 23.6074 12.5362 22.905 11.2859 21.6548C10.0357 20.4046 9.33329 18.7089 9.33329 16.9408C9.33329 15.1726 10.0357 13.477 11.2859 12.2267C12.5362 10.9765 14.2318 10.2741 16 10.2741ZM16 12.9408C14.9391 12.9408 13.9217 13.3622 13.1715 14.1123C12.4214 14.8625 12 15.8799 12 16.9408C12 18.0016 12.4214 19.019 13.1715 19.7692C13.9217 20.5193 14.9391 20.9408 16 20.9408C17.0608 20.9408 18.0782 20.5193 18.8284 19.7692C19.5785 19.019 20 18.0016 20 16.9408C20 15.8799 19.5785 14.8625 18.8284 14.1123C18.0782 13.3622 17.0608 12.9408 16 12.9408Z" fill="#964F4C"/>
</svg>
