<svg width="32" height="33" viewBox="0 0 32 33" fill="none" xmlns="http://www.w3.org/2000/svg">
<path d="M16 3.66211C8.66663 3.66211 2.66663 9.64878 2.66663 17.0221C2.66663 23.6888 7.54662 29.2221 13.92 30.2221V20.8888H10.5333V17.0221H13.92V14.0754C13.92 10.7288 15.9066 8.88878 18.96 8.88878C20.4133 8.88878 21.9333 9.14211 21.9333 9.14211V12.4354H20.2533C18.6 12.4354 18.08 13.4621 18.08 14.5154V17.0221H21.7866L21.1866 20.8888H18.08V30.2221C21.2219 29.7259 24.0829 28.1228 26.1465 25.7022C28.2102 23.2816 29.3404 20.203 29.3333 17.0221C29.3333 9.64878 23.3333 3.66211 16 3.66211Z" fill="#964F4C"/>
</svg>
