<svg width="32" height="33" viewBox="0 0 32 33" fill="none" xmlns="http://www.w3.org/2000/svg">
<path d="M16.0533 3.60749C8.77328 3.60749 2.83994 9.54083 2.83994 16.8208C2.83994 19.1542 3.45328 21.4208 4.59994 23.4208L2.73328 30.2742L9.73328 28.4342C11.6666 29.4875 13.8399 30.0475 16.0533 30.0475C23.3333 30.0475 29.2666 24.1142 29.2666 16.8342C29.2666 13.3008 27.8933 9.98083 25.3999 7.48749C24.1774 6.25297 22.7213 5.27412 21.1166 4.60798C19.5119 3.94184 17.7907 3.60174 16.0533 3.60749ZM16.0666 5.83416C18.9999 5.83416 21.7466 6.98083 23.8266 9.06083C24.8471 10.0815 25.6563 11.2935 26.2076 12.6274C26.759 13.9613 27.0419 15.3908 27.0399 16.8342C27.0399 22.8875 22.1066 27.8075 16.0533 27.8075C14.0799 27.8075 12.1466 27.2875 10.4666 26.2742L10.0666 26.0475L5.90661 27.1408L7.01328 23.0875L6.74661 22.6608C5.646 20.912 5.0635 18.8871 5.06661 16.8208C5.07994 10.7675 9.99994 5.83416 16.0666 5.83416ZM11.3733 10.7142C11.1599 10.7142 10.7999 10.7942 10.4933 11.1275C10.1999 11.4608 9.33328 12.2742 9.33328 13.8875C9.33328 15.5142 10.5199 17.0742 10.6666 17.3008C10.8533 17.5275 13.0133 20.8608 16.3333 22.2742C17.1199 22.6342 17.7333 22.8342 18.2133 22.9808C18.9999 23.2342 19.7199 23.1942 20.2933 23.1142C20.9333 23.0208 22.2399 22.3142 22.5199 21.5408C22.7999 20.7675 22.7999 20.1142 22.7199 19.9675C22.6266 19.8342 22.4133 19.7542 22.0799 19.6075C21.7466 19.4208 20.1199 18.6208 19.8266 18.5142C19.5199 18.4075 19.3333 18.3542 19.0799 18.6742C18.8666 19.0075 18.2266 19.7542 18.0399 19.9675C17.8399 20.1942 17.6533 20.2208 17.3333 20.0608C16.9866 19.8875 15.9199 19.5408 14.6666 18.4208C13.6799 17.5408 13.0266 16.4608 12.8266 16.1275C12.6666 15.8075 12.8133 15.6075 12.9733 15.4608C13.1199 15.3142 13.3333 15.0742 13.4666 14.8742C13.6399 14.6875 13.6933 14.5408 13.7999 14.3275C13.9066 14.1008 13.8533 13.9142 13.7733 13.7542C13.6933 13.6075 13.0266 11.9542 12.7466 11.3008C12.4799 10.6608 12.2133 10.7408 11.9999 10.7275C11.8133 10.7275 11.5999 10.7142 11.3733 10.7142Z" fill="#964F4C"/>
</svg>
